<svg width="229" height="64" viewBox="0 0 229 64" fill="none" xmlns="http://www.w3.org/2000/svg">
<path d="M0 20.1705C0 9.38666 8.17112 2.01855 18.4483 2.01855C26.4613 2.01855 30.9389 6.2298 33.4181 10.5926L26.9862 13.7494C25.5126 10.9083 22.3504 8.64795 18.4483 8.64795C12.3326 8.64795 7.69679 13.5411 7.69679 20.1705C7.69679 26.7999 12.3326 31.693 18.4483 31.693C22.3504 31.693 25.5126 29.4832 26.9862 26.5915L33.4181 29.6979C30.8883 34.067 26.4613 38.3287 18.4483 38.3287C8.17112 38.3161 0 30.9543 0 20.1705Z" fill="#0052A6"/>
<path d="M35.4419 24.9563C35.4419 17.746 40.5014 11.647 48.8812 11.647C57.3117 11.647 62.3712 17.7523 62.3712 24.9563C62.3712 32.217 57.3117 38.3224 48.8812 38.3224C40.5014 38.3161 35.4419 32.217 35.4419 24.9563ZM55.4143 24.9563C55.4143 21.0102 53.0427 17.5882 48.8812 17.5882C44.7198 17.5882 42.3987 21.0102 42.3987 24.9563C42.3987 28.9529 44.7198 32.3749 48.8812 32.3749C53.0427 32.3749 55.4143 28.9529 55.4143 24.9563Z" fill="#0052A6"/>
<path d="M83.5896 22.3234C83.5896 18.8004 81.7429 17.5881 78.8969 17.5881C76.2597 17.5881 74.2042 19.0592 73.0975 20.5872V37.6847H66.4062V12.272H73.0975V15.5867C74.7292 13.6421 77.8408 11.6406 82.0022 11.6406C87.5867 11.6406 90.2745 14.7975 90.2745 19.7411V37.6847H83.5833V22.3234H83.5896Z" fill="#0052A6"/>
<path d="M97.3009 18.1184H93.0825V12.2782H97.3009V10.9082C97.3009 5.38366 100.887 2.06896 105.889 2.06896C107.787 2.06896 109.526 2.49198 110.74 3.12335L109.368 7.96597C108.843 7.59978 108.103 7.3346 107.205 7.3346C105.308 7.3346 104.043 8.59734 104.043 10.9145V12.2845H109.21V18.1247H104.043V37.6972H97.2946V18.1184H97.3009ZM112.372 4.54393C112.372 2.33413 114.219 0.547363 116.375 0.547363C118.589 0.547363 120.379 2.33413 120.379 4.54393C120.379 6.75373 118.589 8.54051 116.375 8.54051C114.219 8.54051 112.372 6.75373 112.372 4.54393ZM113.061 12.2782H119.752V37.6909H113.061V12.2782Z" fill="#0052A6"/>
<path d="M143.02 34.4266C141.015 36.952 138.226 38.3221 135.165 38.3221C128.733 38.3221 123.889 33.4795 123.889 25.0128C123.889 16.6976 128.683 11.6467 135.165 11.6467C138.169 11.6467 141.015 12.9599 143.02 15.5422V2.59912H149.768V37.6907H143.02V34.4266ZM143.02 20.4859C141.913 18.8001 139.491 17.5942 137.22 17.5942C133.426 17.5942 130.789 20.5932 130.789 25.0128C130.789 29.3819 133.426 32.3809 137.22 32.3809C139.485 32.3809 141.913 31.1687 143.02 29.4892V20.4859Z" fill="#0052A6"/>
<path d="M173.086 34.4269C171.081 36.9523 168.292 38.3224 165.231 38.3224C158.799 38.3224 153.955 33.4798 153.955 25.0131C153.955 16.698 158.748 11.647 165.231 11.647C168.235 11.647 171.081 12.9602 173.086 15.5425V12.2783H179.834V37.691H173.086V34.4269ZM173.086 20.5367C171.979 18.8509 169.557 17.645 167.286 17.645C163.492 17.645 160.855 20.5935 160.855 25.0131C160.855 29.3822 163.492 32.3812 167.286 32.3812C169.551 32.3812 171.979 31.169 173.086 29.4895V20.5367Z" fill="#0052A6"/>
<path d="M202.583 22.3234C202.583 18.8004 200.736 17.5881 197.89 17.5881C195.253 17.5881 193.197 19.0592 192.091 20.5872V37.6847H185.399V12.272H192.091V15.5867C193.722 13.6421 196.834 11.6406 200.995 11.6406C206.58 11.6406 209.268 14.7975 209.268 19.7411V37.6847H202.576V22.3234H202.583Z" fill="#0052A6"/>
<path d="M216.193 31.3771V18.1183H211.975V12.2781H216.193V5.33301H222.941V12.2781H228.108V18.1183H222.941V29.5903C222.941 31.1687 223.782 32.381 225.262 32.381C226.261 32.381 227.21 32.0148 227.583 31.6423L229.006 36.6932C228.007 37.5898 226.211 38.3222 223.422 38.3222C218.723 38.3158 216.193 35.8977 216.193 31.3771Z" fill="#0052A6"/>
<path d="M38.794 55.6533H4.42725V58.2546H38.794V55.6533Z" fill="#0052A6"/>
<path d="M224.567 55.6533H190.2V58.2546H224.567V55.6533Z" fill="#0052A6"/>
<path d="M53.9346 49.9082V55.7863H60.3285V49.9082H63.516V64.0004H60.3285V58.4443H53.9346V64.0004H50.7471V49.9082H53.9346Z" fill="#0052A6"/>
<path d="M87.125 49.9082V52.5473H79.561V55.6095H86.3598V58.2486H79.561V61.3676H87.3464V64.0067H76.3735V49.9145H87.125V49.9082Z" fill="#0052A6"/>
<path d="M109.134 61.2603H102.601L101.494 64.0004H98.2051L104.34 49.9082H107.628L113.662 64.0004H110.253L109.134 61.2603ZM108.103 58.7032L105.883 53.2292L103.644 58.7032H108.103Z" fill="#0052A6"/>
<path d="M127.974 49.9082V61.2224H134.027V64.0004H124.787V49.9082H127.974Z" fill="#0052A6"/>
<path d="M154.246 49.9082V52.6042H149.932V64.0004H146.745V52.6042H142.451V49.9082H154.246Z" fill="#0052A6"/>
<path d="M168.672 49.9082V55.7863H175.066V49.9082H178.253V64.0004H175.066V58.4443H168.672V64.0004H165.484V49.9082H168.672Z" fill="#0052A6"/>
</svg>
