<svg width="107" height="114" viewBox="0 0 107 114" fill="none" xmlns="http://www.w3.org/2000/svg">
<path d="M100.032 66.6476C99.0452 65.1828 98.0838 63.6739 97.1668 62.1522C95.3011 59.0459 93.5872 55.8512 92.354 52.4291C91.614 50.3582 91.108 48.2495 91.146 46.0333C91.2535 40.4141 91.2156 34.7886 91.1903 29.1568V18.7644C91.1903 16.2452 91.1776 13.7261 91.146 11.188C91.146 9.79263 90.7476 8.52989 89.7356 7.5197C89.0526 6.83781 88.2937 6.2317 87.4336 5.76448C86.1055 5.02578 84.7457 4.98158 83.3417 5.62558C82.7915 5.88444 82.2855 6.22538 81.8049 6.59789C78.9779 8.64985 76.3722 10.967 73.7476 13.2841C70.2375 16.422 66.7907 19.6231 63.3882 22.8873C63.0594 23.2156 62.7684 23.2977 62.3194 23.1777C60.4094 22.7105 58.4931 22.3443 56.5452 22.1359C53.1554 21.7824 49.835 21.9276 46.6412 23.2156C46.2175 23.3924 45.9582 23.2977 45.623 23.0072C42.2774 20.185 38.9128 17.3501 35.5356 14.5279C32.1457 11.7057 28.7558 8.88346 25.2711 6.15593C24.6956 5.68872 24.0758 5.2657 23.4054 4.93739C22.3745 4.44492 21.331 4.38809 20.2622 4.79849C19.712 5.00684 19.1933 5.27833 18.7 5.58139C17.4794 6.28221 16.9039 7.3366 16.8913 8.74456C16.8217 14.812 16.6446 20.8921 16.4359 26.9596C16.2588 32.5346 16.0122 38.1096 15.7655 43.6973C15.7086 44.6948 15.7402 45.7113 15.5758 46.7215C15.3039 48.2116 14.9434 49.7079 14.5196 51.1727C12.9132 56.7856 10.3645 61.9502 7.05684 66.7486C6.67105 67.3105 6.6331 67.2032 7.13905 67.6515C8.42923 68.8006 9.70676 69.9244 10.978 71.0609C11.7179 71.7301 11.6357 71.5281 11.1677 72.3047C9.73838 74.6471 8.30274 76.9895 6.87343 79.3319C6.51926 79.8938 6.51926 79.8938 7.01257 80.361C8.17626 81.4722 9.33362 82.5518 10.5226 83.6315C13.337 86.1633 16.3158 88.493 19.4843 90.6018C19.9396 90.9049 19.9207 90.9175 19.6234 91.3532C19.0036 92.2686 18.3775 93.1778 17.7704 94.0933C17.4541 94.5732 17.4541 94.5984 17.8779 94.9709C22.5453 99.2011 27.7313 102.617 33.5877 104.972C38.4575 106.929 43.5233 108.04 48.7472 108.381C53.5095 108.697 58.2149 108.438 62.8823 107.504C72.4068 105.597 80.6348 101.165 87.9205 94.8573C88.2115 94.5984 88.2115 94.4216 88.0281 94.1186C87.5221 93.2283 87.0288 92.3128 86.5292 91.391C86.1877 90.7849 86.175 90.867 86.7189 90.4566C88.3633 89.2254 90.0266 88.0195 91.6583 86.7694C94.2386 84.7995 96.7621 82.7728 99.0388 80.4557C99.5195 79.9632 99.4942 80.0706 99.1464 79.5086C97.6917 77.0463 96.3763 74.5082 95.143 71.9322C94.8711 71.3829 94.7699 71.4397 95.3327 70.9978C96.8569 69.8045 98.3811 68.6175 99.899 67.4116C100.335 67.1148 100.335 67.1148 100.032 66.6476ZM24.196 38.2801C23.7027 38.962 22.9627 39.2272 22.248 39.0062C21.5081 38.7726 21.0654 38.1538 21.0654 37.3078C21.0527 35.1422 21.0527 32.9766 21.0527 30.8299V11.1059C21.0654 10.3924 21.3816 9.84314 22.0267 9.53377C22.7097 9.21808 23.3422 9.34436 23.905 9.8242C24.7715 10.5629 25.6189 11.289 26.4854 12.0277C30.6405 15.6139 34.8146 19.1938 38.9824 22.7799C39.0519 22.8368 39.1215 22.8873 39.1721 22.9567C40.1208 23.847 39.9121 25.2991 38.7041 25.7916C32.6833 28.2981 28.1107 32.5031 24.4869 37.8445C24.4047 37.996 24.3035 38.1475 24.196 38.2801ZM28.7622 56.6909C28.7369 53.4141 31.5196 51.0212 34.4288 51.0464C37.2811 51.0591 40.0702 53.4141 40.0386 56.6783C40.0386 59.8414 37.5278 62.3227 34.3719 62.3227C31.2477 62.3101 28.7811 59.8162 28.7622 56.6909ZM65.4942 85.9486C64.9756 86.5232 64.4128 87.0156 63.7487 87.426C63.4578 87.5902 63.325 87.7985 63.2554 88.1079C63.091 88.7772 62.857 89.4338 62.5408 90.0652C62.351 90.4187 62.3321 90.766 62.3763 91.1637C62.6925 93.3799 62.6103 95.6149 62.117 97.8058C61.4466 100.874 59.1256 102.831 55.9697 103.229C54.6795 103.381 53.4147 103.419 52.1688 103.04C49.2469 102.124 47.2294 99.4789 47.242 96.3978C47.242 95.4697 46.9701 94.9899 46.1859 94.4974C43.8648 92.9884 42.3723 90.8544 41.645 88.1837C41.5501 87.7985 41.373 87.5649 41.0441 87.3313C38.6282 85.6456 37.338 83.3474 37.3001 80.3862C37.2874 79.0856 38.546 78.2648 39.7034 78.7952C40.3232 79.0856 40.6647 79.6033 40.6773 80.2852C40.7026 80.7651 40.7469 81.2323 40.8671 81.6805C41.4995 83.8967 43.5865 85.4498 45.876 85.3804C48.1654 85.3109 50.1702 83.6378 50.6635 81.4217C50.7205 81.1755 50.7331 80.9292 50.7331 80.683C50.7458 80.0011 50.7331 79.3255 50.7331 78.6563C50.7331 78.0817 50.7331 78.0817 50.1449 78.0817C49.3923 78.107 48.6524 78.0565 47.9377 77.8229C45.37 76.9768 43.7952 75.2595 43.3525 72.5762C42.9668 70.259 44.902 67.9987 47.261 67.9482C47.8365 67.9356 48.4121 67.9356 48.9876 67.9356C50.1513 67.9356 51.3086 67.9482 52.4597 67.9482C54.104 67.9482 55.7547 67.9924 57.399 67.9356C59.6632 67.8662 62.1866 70.057 61.434 73.1697C60.7193 76.0866 58.139 78.0754 55.1096 78.0881C54.1926 78.0881 54.1926 78.0881 54.1926 79.0225C54.1926 79.4897 54.2052 79.9695 54.1926 80.4494C54.1673 82.7539 55.8559 84.8058 58.1453 85.2731C61.2569 85.8918 64.1029 83.6567 64.2357 80.4809C64.2357 80.3736 64.2357 80.26 64.261 80.1526C64.3685 79.2371 65.1274 78.6058 66.0318 78.6626C66.9109 78.7068 67.6129 79.3887 67.6256 80.2915C67.6635 82.4319 66.9109 84.3197 65.4942 85.9486ZM70.421 62.3227C67.3094 62.2975 64.8112 59.772 64.8365 56.653C64.8618 53.2436 67.7584 50.9707 70.6107 51.0527C73.697 51.1474 76.1698 53.654 76.1256 56.7919C76.1003 59.8667 73.5642 62.3353 70.421 62.3227ZM87.5031 11.5163V37.0363C87.5031 37.3394 87.5158 37.6235 87.4209 37.9139C87.1996 38.5137 86.7885 38.8988 86.175 39.0377C85.5426 39.1766 84.9671 38.9935 84.5307 38.5011C84.3789 38.3369 84.2714 38.1475 84.1449 37.9518C82.3867 35.401 80.4514 32.9955 78.1051 30.9688C75.6765 28.8727 73.0393 27.0543 70.0225 25.8863C68.5806 25.3244 68.4983 23.6512 69.5166 22.8052C73.2353 19.6673 76.8971 16.4789 80.5906 13.2967C81.9377 12.1603 83.2658 11.0112 84.5939 9.85577C85.0872 9.44538 85.6248 9.23702 86.2825 9.44538C86.9972 9.66636 87.4462 10.2283 87.5031 10.9796C87.5221 11.1564 87.5031 11.3395 87.5031 11.5163Z" fill="white"/>
<path d="M47.375 90.425C48.5197 89.7432 49.6202 89.2696 50.885 89.2949C51.7388 89.3138 52.3396 89.7053 52.7001 90.4755C52.9594 91.0312 53.0923 91.6246 53.1302 92.2371C53.1871 93.1778 53.2251 94.1249 53.263 95.0656C53.301 96.1137 54.0219 96.8713 54.9769 96.8524C55.9003 96.8335 56.6592 96.0695 56.6402 95.0719C56.6023 93.544 56.6276 92.0098 56.2797 90.5071C56.1659 90.021 55.9951 89.5601 55.8117 89.0992C55.6663 88.733 55.6979 88.6761 56.1027 88.6635C57.6015 88.6193 58.2593 89.1939 58.6957 90.2735C59.0372 91.1195 59.1257 92.0161 59.1447 92.919C59.1763 94.2701 59.1194 95.6149 58.8538 96.9408C58.5502 98.4624 57.6205 99.3968 56.1027 99.7441C55.3501 99.9146 54.5911 100.041 53.8259 99.9335C51.9286 99.662 50.6637 98.2035 50.6194 96.2589C50.6068 95.6717 50.6004 95.0909 50.6194 94.5037C50.6384 93.9228 50.4297 93.4556 50.0186 93.0579C49.3103 92.3633 48.6083 91.6688 47.9062 90.968C47.7355 90.8228 47.59 90.6586 47.375 90.425Z" fill="#DD0374"/>
<path d="M52.4722 72.431C53.4841 72.431 54.5023 72.4373 55.5142 72.4247C55.9 72.4184 56.2352 72.4941 56.4313 72.8603C56.64 73.2518 56.4882 73.599 56.2542 73.921C55.8874 74.4324 55.3751 74.6976 54.7553 74.7039C53.2248 74.7229 51.6943 74.7166 50.1638 74.7039C49.544 74.6976 49.0317 74.4388 48.6459 73.9463C48.393 73.6243 48.2728 73.2581 48.4562 72.8793C48.627 72.5131 48.9685 72.4184 49.3606 72.4247C50.3978 72.4373 51.435 72.431 52.4722 72.431Z" fill="#87BBE5"/>
<path d="M73.6021 23.7838C77.1058 20.7722 80.5273 17.83 83.9298 14.9067C84.0057 14.9383 84.0246 14.9446 84.0436 14.9572C84.0626 14.9699 84.0879 14.9825 84.0879 15.0014C84.1005 15.0898 84.1132 15.1782 84.1132 15.2666C84.1132 20.8669 84.1132 26.4671 84.1132 32.2505C82.5258 30.489 81.0016 28.8853 79.2561 27.5152C77.5105 26.1325 75.6701 24.8824 73.6021 23.7838Z" fill="#87BBE5"/>
<path d="M34.9474 23.7711C30.9251 25.9682 27.4656 28.6958 24.4932 32.2314C24.4932 26.3723 24.4932 20.6584 24.4932 14.793C28.0095 17.8109 31.4247 20.7468 34.9474 23.7711Z" fill="#87BBE5"/>
<path d="M93.7324 95.1036C93.5111 94.7627 93.334 94.4028 93.1442 94.0492C92.8723 93.5442 92.5814 93.0201 92.2968 92.515C92.1197 92.2561 92.1576 92.0604 92.4169 91.9152C92.5434 91.8331 92.6383 91.7511 92.7458 91.669C94.6937 90.2042 96.6163 88.7078 98.4694 87.1484C100.721 85.2416 102.903 83.2844 104.642 80.9167C105.135 80.2475 105.066 80.399 104.68 79.8181C103.27 77.6967 102.005 75.4869 100.841 73.2266C100.525 72.6268 100.55 72.69 101.05 72.3238C102.669 71.0484 104.275 69.773 105.894 68.5292C106.482 68.062 106.482 68.062 106.059 67.4496C103.877 64.3243 101.764 61.1611 99.8987 57.8464C98.5263 55.4093 97.2804 52.928 96.4013 50.2573C95.8384 48.5716 95.5475 46.8606 95.6866 45.0801C95.7309 44.5182 95.7309 43.9563 95.7309 43.3943V28.4624C95.7309 28.4624 95.7309 28.4624 95.7183 28.4624C95.7183 24.2827 95.7309 20.1094 95.7183 15.8981C95.7056 14.105 95.7056 12.3119 95.6487 10.4999C95.5665 8.51108 94.9341 6.70536 93.6755 5.14587C92.398 3.57375 90.8105 2.33627 88.9828 1.4776C87.2373 0.65682 85.3905 0.480036 83.4932 0.846231C82.2473 1.09247 81.09 1.59756 80.0338 2.31101C78.0606 3.62426 76.2455 5.14587 74.4493 6.6801C70.193 10.2979 66.0822 14.0924 62.0345 17.9248C61.693 18.2531 61.3895 18.3352 60.9531 18.2405C59.3467 17.8996 57.715 17.6786 56.0706 17.5586C53.231 17.325 50.404 17.4513 47.6213 18.1584C47.2355 18.2531 46.9635 18.2153 46.66 17.9501C45.2306 16.7315 43.8077 15.5256 42.3657 14.3323C37.6034 10.3357 32.8412 6.33285 27.9461 2.48148C27.2757 1.96376 26.561 1.48392 25.8084 1.08615C23.753 -0.0376886 21.5837 -0.309178 19.3322 0.347448C17.9851 0.732584 16.7519 1.38921 15.6135 2.22262C13.5834 3.6874 12.5272 5.67622 12.4007 8.19539C12.3185 10.2095 12.3311 12.2362 12.2742 14.2629C12.0971 20.7849 11.9454 27.3007 11.6544 33.8228C11.49 37.491 11.3382 41.1656 11.1864 44.8212C11.1738 45.3263 11.1295 45.863 11.022 46.3555C10.0354 51.3307 8.25191 55.9839 5.74112 60.3845C4.36873 62.7711 2.79396 65.0125 1.11799 67.1907C0.472904 68.0241 0.485554 67.7779 1.25713 68.4787C2.58525 69.6846 3.945 70.8779 5.29209 72.0649C5.82966 72.5447 5.77274 72.4627 5.44388 72.993C4.00191 75.348 2.5473 77.703 1.10534 80.077C0.776472 80.6137 0.694259 80.4748 1.21286 81.0241C5.02647 84.8439 8.97921 88.5437 13.3304 91.7763C13.6213 92.0099 13.6593 92.1741 13.4695 92.4898C12.9762 93.3547 12.5525 94.245 12.0592 95.091C11.8948 95.3814 11.9074 95.5835 12.1541 95.8045C12.5651 96.1454 12.9509 96.5432 13.3367 96.9283C17.8081 101.228 22.779 104.858 28.3635 107.598C34.2388 110.478 40.4367 112.176 46.9445 112.788C49.664 113.035 52.3899 113.104 55.1093 112.978C58.7332 112.801 62.2875 112.334 65.8102 111.5C76.6059 108.937 85.7068 103.349 93.6628 95.7855C93.8968 95.5519 93.8968 95.3878 93.7324 95.1036ZM86.5289 91.4164C87.0222 92.3319 87.5155 93.2537 88.0278 94.144C88.2049 94.447 88.2049 94.6238 87.9203 94.8827C80.6346 101.184 72.4002 105.622 62.882 107.529C58.2146 108.463 53.5093 108.722 48.747 108.407C43.5167 108.066 38.4572 106.954 33.5874 104.997C27.731 102.642 22.5387 99.2328 17.8776 94.9963C17.4539 94.6238 17.4539 94.5985 17.7701 94.1187C18.3709 93.2032 19.0034 92.294 19.6232 91.3785C19.9267 90.9429 19.9394 90.924 19.484 90.6272C16.3155 88.5184 13.3367 86.1887 10.5224 83.6569C9.32705 82.5772 8.17602 81.4913 7.01233 80.3864C6.51902 79.9192 6.51902 79.9192 6.87319 79.3572C8.3025 77.0149 9.73814 74.6725 11.1675 72.3301C11.6355 71.5472 11.7177 71.7555 10.9777 71.0863C9.70019 69.9498 8.42266 68.826 7.13881 67.6769C6.63286 67.2223 6.67081 67.3359 7.0566 66.774C10.3643 61.9819 12.913 56.8173 14.5194 51.1981C14.9431 49.7333 15.3036 48.2369 15.5756 46.7469C15.74 45.7304 15.7147 44.7202 15.7653 43.7226C16.0119 38.135 16.2586 32.56 16.4357 26.985C16.6444 20.9175 16.8215 14.8374 16.891 8.76994C16.9037 7.35567 17.4792 6.30128 18.6998 5.60677C19.1931 5.30371 19.718 5.03222 20.2619 4.82387C21.3308 4.41348 22.3743 4.4703 23.4052 4.96277C24.0755 5.29108 24.6953 5.7141 25.2709 6.18132C28.7556 8.90884 32.1455 11.7311 35.5353 14.5533C38.9126 17.3755 42.2708 20.2104 45.6227 23.0326C45.9516 23.323 46.2109 23.4178 46.641 23.241C49.8348 21.953 53.1614 21.8014 56.545 22.1613C58.4929 22.3697 60.4155 22.7359 62.3192 23.2031C62.7745 23.323 63.0591 23.2473 63.388 22.9127C66.7905 19.6548 70.2373 16.4474 73.7473 13.3095C76.3656 10.9924 78.9776 8.68155 81.8046 6.62328C82.2853 6.25077 82.7912 5.90983 83.3414 5.65097C84.7391 5.00697 86.0989 5.05116 87.4333 5.78987C88.2998 6.25708 89.0524 6.85688 89.7354 7.54508C90.7536 8.55527 91.1457 9.81802 91.1457 11.2133C91.171 13.7451 91.19 16.2706 91.19 18.7898V29.1885C91.2153 34.8203 91.2596 40.4458 91.1457 46.065C91.1015 48.2811 91.6137 50.3962 92.3537 52.4608C93.5869 55.8829 95.3009 59.0776 97.1665 62.1839C98.0836 63.7055 99.0449 65.2082 100.032 66.6793C100.335 67.1465 100.335 67.1465 99.905 67.4748C98.3808 68.6808 96.8567 69.874 95.3388 71.061C94.7759 71.4967 94.8708 71.4462 95.1491 71.9954C96.3823 74.5714 97.7041 77.1032 99.1524 79.5719C99.4939 80.1338 99.5256 80.0265 99.0449 80.519C96.7681 82.8361 94.2447 84.8628 91.6643 86.8327C90.0326 88.0765 88.3693 89.2824 86.725 90.5199C86.1748 90.8987 86.1874 90.8103 86.5289 91.4164Z" fill="#0052A6"/>
<path d="M87.4207 37.9137C87.5156 37.6232 87.5029 37.3391 87.5029 37.0361V11.516C87.5029 11.3393 87.5156 11.1625 87.5029 10.9794C87.446 10.228 86.997 9.66612 86.2823 9.44514C85.6246 9.23679 85.087 9.44514 84.5937 9.85553C83.2656 11.0046 81.9311 12.1537 80.5904 13.2965C76.8969 16.4723 73.2351 19.667 69.5163 22.805C68.4981 23.6573 68.5803 25.3241 70.0223 25.886C73.039 27.0478 75.6763 28.8724 78.1049 30.9686C80.4512 32.9953 82.3865 35.4071 84.1447 37.9579C84.2648 38.1473 84.3787 38.343 84.5304 38.5072C84.9668 38.9996 85.5487 39.1764 86.1748 39.0438C86.7946 38.8986 87.2057 38.5135 87.4207 37.9137ZM84.113 32.2376C82.5193 30.4824 81.0014 28.8787 79.2559 27.5087C77.9404 26.4669 76.5807 25.5072 75.1134 24.6296C74.6201 24.3392 74.1268 24.0551 73.6019 23.7773L73.6145 23.7646C75.3601 22.2557 77.0866 20.7783 78.8005 19.3008C80.5145 17.8234 82.2284 16.3587 83.9296 14.8876C83.9992 14.9128 84.0118 14.9318 84.0371 14.9444C84.0498 14.957 84.0814 14.9696 84.0814 14.9886C84.0941 15.0707 84.1067 15.1654 84.1067 15.2474V32.2376H84.113Z" fill="#0052A6"/>
<path d="M38.7105 25.7917C39.9184 25.2992 40.1208 23.8471 39.1785 22.9568C39.1215 22.8874 39.052 22.8369 38.9887 22.78C34.8146 19.1939 30.6469 15.614 26.4917 12.0278C25.6253 11.2891 24.7778 10.563 23.9114 9.82431C23.3485 9.34447 22.7161 9.22451 22.033 9.53388C21.3879 9.84956 21.0717 10.3989 21.0591 11.106V30.83C21.0591 32.983 21.0591 35.1486 21.0717 37.3079C21.0717 38.1539 21.5081 38.7727 22.2544 39.0063C22.969 39.2273 23.709 38.9684 24.2023 38.2802C24.3098 38.1413 24.411 37.9898 24.5059 37.8446C28.1171 32.5032 32.6896 28.2982 38.7105 25.7917ZM24.4996 32.2254V14.7869C28.0096 17.8112 31.4311 20.747 34.9538 23.7713C30.9188 25.9685 27.4594 28.696 24.4996 32.2254Z" fill="#0052A6"/>
<path d="M66.0316 78.65C65.1272 78.5932 64.3683 79.2245 64.2608 80.14C64.2355 80.2474 64.2355 80.361 64.2355 80.4683C64.0964 83.6441 61.2567 85.8792 58.1451 85.2604C55.8557 84.7932 54.1671 82.7413 54.1924 80.4368C54.205 79.9569 54.1924 79.4771 54.1924 79.0099C54.1924 78.0754 54.1924 78.0754 55.1094 78.0754C58.1388 78.0628 60.7191 76.074 61.4338 73.1571C62.1864 70.0507 59.663 67.8535 57.3988 67.923C55.7545 67.9798 54.1038 67.9356 52.4595 67.9356C51.3084 67.9356 50.1574 67.923 48.9874 67.923C48.4119 67.923 47.8363 67.923 47.2608 67.9356C44.9018 67.9924 42.9666 70.2527 43.3523 72.5636C43.7887 75.2469 45.3698 76.9579 47.9375 77.8103C48.6522 78.0439 49.3921 78.1007 50.1447 78.0691C50.7329 78.0691 50.7329 78.0691 50.7329 78.6437C50.7329 79.3129 50.7456 79.9885 50.7329 80.6704C50.7329 80.9166 50.7203 81.1628 50.6633 81.4091C50.17 83.6252 48.1652 85.2983 45.8758 85.3678C43.5864 85.4372 41.4993 83.8904 40.8669 81.6679C40.7404 81.2134 40.7024 80.7525 40.6771 80.2726C40.6645 79.5907 40.323 79.0667 39.7032 78.7826C38.5521 78.2459 37.2872 79.073 37.2999 80.3736C37.3442 83.3348 38.628 85.633 41.0439 87.3187C41.3728 87.5523 41.5499 87.7859 41.6448 88.1711C42.3721 90.8418 43.8646 92.9821 46.1857 94.4848C46.9699 94.9772 47.2418 95.4571 47.2418 96.3852C47.2292 99.4663 49.2467 102.112 52.1686 103.027C53.4145 103.412 54.6793 103.368 55.9695 103.217C59.1254 102.819 61.4464 100.862 62.1168 97.7932C62.6101 95.6023 62.6923 93.3672 62.3761 91.1511C62.3319 90.7534 62.3508 90.4124 62.5406 90.0526C62.8568 89.4212 63.0908 88.7646 63.2552 88.0953C63.3248 87.7796 63.4639 87.5776 63.7485 87.4134C64.4062 87.003 64.9691 86.5106 65.494 85.936C66.9044 84.3071 67.6633 82.413 67.619 80.2663C67.6127 79.3761 66.9107 78.6942 66.0316 78.65ZM50.17 74.7039C49.5376 74.7039 49.0316 74.4451 48.6459 73.9526C48.3992 73.6369 48.2727 73.2707 48.4561 72.8856C48.6332 72.5131 48.9747 72.4184 49.3605 72.431C50.404 72.4436 51.4349 72.431 52.4721 72.431C53.4903 72.431 54.5023 72.4436 55.5015 72.431C55.5964 72.431 55.6912 72.431 55.7924 72.4436C55.862 72.4562 55.9316 72.4689 56.0011 72.5004C56.1782 72.5573 56.3174 72.6646 56.4249 72.854C56.6462 73.2518 56.4944 73.5927 56.2604 73.921C56.1656 74.0599 56.0707 74.1673 55.9569 74.262C55.7355 74.4514 55.4762 74.5776 55.2043 74.6471C55.0651 74.6913 54.9133 74.7039 54.7679 74.7039C53.2311 74.7165 51.6942 74.7165 50.17 74.7039ZM58.9926 96.1011C58.9483 96.3915 58.9103 96.663 58.8534 96.9534C58.8092 97.1429 58.7712 97.3196 58.7017 97.5027C58.6321 97.6669 58.5752 97.831 58.4929 97.9826C58.3412 98.2983 58.1514 98.5571 57.9174 98.7907C57.4621 99.2706 56.8486 99.5863 56.0897 99.763C55.3371 99.9272 54.5781 100.053 53.8129 99.9398C53.5789 99.9146 53.3449 99.8577 53.1299 99.7883C52.9212 99.7188 52.7188 99.6368 52.529 99.5294C52.5164 99.5294 52.5164 99.5294 52.5164 99.5294C52.3267 99.4347 52.1433 99.3085 51.9788 99.1759C51.3906 98.7087 50.9606 98.0647 50.7582 97.3133C50.6633 96.985 50.6064 96.6441 50.6064 96.2716C50.5938 95.6844 50.5938 95.1098 50.6064 94.5163C50.6317 93.9418 50.4167 93.4746 50.0056 93.0768C49.3036 92.376 48.6079 91.6815 47.8933 90.9807C47.7857 90.8733 47.6593 90.7344 47.5201 90.5829C47.4758 90.5261 47.4379 90.4882 47.381 90.4314H47.3683V90.4188C47.5075 90.3367 47.6403 90.2546 47.7794 90.1851C48.4625 89.8126 49.1518 89.5285 49.8791 89.3896C50.0309 89.3644 50.17 89.3517 50.3155 89.3328C50.5052 89.3075 50.6886 89.3075 50.8784 89.3075C50.9859 89.3075 51.0871 89.3075 51.1819 89.3202C51.884 89.4149 52.3773 89.8 52.6935 90.4693V90.4819C52.8832 90.8923 53.0097 91.3342 53.0793 91.7825C53.0919 91.934 53.1235 92.0856 53.1235 92.2371C53.1805 93.1842 53.231 94.1123 53.2627 95.0593C53.2753 95.3624 53.3322 95.6339 53.4524 95.8801C53.5093 96.0001 53.5726 96.1263 53.6738 96.221C53.6864 96.2652 53.718 96.3031 53.756 96.3284C53.8255 96.4105 53.9078 96.4799 53.99 96.5494C54.1797 96.6883 54.4137 96.783 54.6604 96.8082C54.7679 96.8335 54.8691 96.8335 54.9766 96.8335C55.2106 96.8335 55.413 96.7767 55.6217 96.6946C56.2225 96.4357 56.6652 95.817 56.6399 95.0656C56.5956 93.5314 56.6272 91.9972 56.2857 90.5071C56.2288 90.2609 56.1592 90.0273 56.077 89.7937C55.9948 89.5601 55.8999 89.3265 55.8051 89.0929C55.7608 88.9729 55.7355 88.8719 55.7355 88.8214C55.7355 88.7772 55.7482 88.7519 55.7608 88.7393C55.7735 88.7267 55.7861 88.714 55.8177 88.6951C55.8746 88.6825 55.9695 88.6698 56.1086 88.6698C56.3553 88.6572 56.5766 88.6698 56.779 88.6951C56.9308 88.7077 57.07 88.7393 57.1901 88.7772C57.5759 88.8719 57.8732 89.0487 58.1261 89.3139C58.2906 89.478 58.417 89.6674 58.5372 89.901C58.5941 90.021 58.6447 90.1346 58.7017 90.2735C59.0432 91.1259 59.1254 92.0161 59.157 92.919C59.1697 93.9923 59.1317 95.0467 58.9926 96.1011Z" fill="#0052A6"/>
<path d="M40.0446 56.6784C40.0699 53.4205 37.2872 51.0655 34.4349 51.0466C31.5257 51.0213 28.7429 53.4142 28.7682 56.691C28.7809 59.8163 31.2537 62.3102 34.378 62.3229C37.5338 62.3229 40.0446 59.8416 40.0446 56.6784ZM32.7147 55.5546C31.7533 55.5546 31.0134 54.8159 31.026 53.8436C31.026 52.9281 31.766 52.1831 32.6894 52.1704C33.6507 52.1578 34.4159 52.9407 34.4033 53.8814C34.3906 54.8159 33.6633 55.5546 32.7147 55.5546Z" fill="#0052A6"/>
<path d="M70.6171 51.0466C67.7648 50.9645 64.8683 53.2374 64.843 56.6468C64.8177 59.7721 67.3158 62.2913 70.4274 62.3166C73.5706 62.3292 76.1067 59.8668 76.1383 56.7794C76.17 53.6478 73.7035 51.1413 70.6171 51.0466ZM68.8147 55.5546C67.8534 55.5672 67.1008 54.8159 67.1008 53.8562C67.1008 52.9407 67.8407 52.1831 68.7641 52.1704C69.7001 52.1578 70.4527 52.8965 70.478 53.812C70.5033 54.7906 69.776 55.5419 68.8147 55.5546Z" fill="#0052A6"/>
</svg>
